<?xml version="1.0" encoding="utf-8"?>
<!-- Generator: Adobe Illustrator 28.0.0, SVG Export Plug-In . SVG Version: 6.00 Build 0)  -->
<svg version="1.1" id="Layer_1" xmlns="http://www.w3.org/2000/svg" xmlns:xlink="http://www.w3.org/1999/xlink" x="0px" y="0px"
	 viewBox="0 0 24 24" style="enable-background:new 0 0 24 24;" xml:space="preserve">
<style type="text/css">
	.st0{fill:#FFFFFF;}
</style>
<g>
	<path class="st0" d="M2.9,7.4h8.7c0,0,0.1,0,0.1,0c2.4,0,4.3,2,4.3,4.4v0.3c0,2.4-1.9,4.3-4.3,4.4c0,0,0,0,0,0c0,0,0,0-0.1,0v0h0v0
		H7.8V9.6H5.7v9.1h5.9c3.6,0,6.5-2.9,6.5-6.5v-0.5v0c0-1.8-0.7-3.4-1.9-4.6c-1.2-1.2-2.8-1.9-4.6-1.9H2.9V0H0.7v24h7.1v-2.2h-5V7.4z
		"/>
	<path class="st0" d="M11.4,0H5.1v2.2h6.3c5.4,0,9.7,4.4,9.7,9.7v0.2c0,5.4-4.4,9.7-9.7,9.7H10V24h1.4c6.6,0,11.9-5.3,11.9-11.9
		v-0.2C23.3,5.3,18,0,11.4,0z"/>
</g>
</svg>
