<?xml version="1.0" encoding="utf-8"?>
<!-- Generator: Adobe Illustrator 28.0.0, SVG Export Plug-In . SVG Version: 6.00 Build 0)  -->
<svg version="1.1" id="Layer_1" xmlns="http://www.w3.org/2000/svg" xmlns:xlink="http://www.w3.org/1999/xlink" x="0px" y="0px"
	 viewBox="0 0 383.3 384" style="enable-background:new 0 0 383.3 384;" xml:space="preserve">
<style type="text/css">
	.st0{fill:#FFFFFF;}
</style>
<path class="st0" d="M57,384c-4.9-1.4-9.9-2-14.8-3.8c-24.7-8.9-42-32.8-42.1-59.1c-0.1-71.9-0.2-143.8,0-215.6
	c0.1-34.2,28.4-62.5,62.6-62.8c28.6-0.2,57.1-0.1,85.7,0c12.5,0,21.9,9.2,22,21.2c0.1,11.9-9.4,21.4-21.8,21.4
	c-27.6,0.1-55.1,0-82.7,0.1c-14.6,0-23.2,8.6-23.2,23.3c0,69.8,0,139.5,0,209.2c0,14.6,8.6,23.3,23.2,23.3c69.6,0,139.2,0,208.8,0
	c14.9,0,23.3-8.6,23.3-23.6c0-27.4,0-54.8,0-82.1c0-14.2,11.1-23.9,24.7-21.9c10.1,1.4,17.8,10.3,17.8,20.9c0.1,22.5,0.1,45,0,67.5
	c-0.1,10.5,0.9,21-1.4,31.4c-5.7,26.2-26.9,46.1-53.5,49.9c-0.7,0.1-1.4,0.4-2.1,0.7L57,384L57,384z"/>
<path class="st0" d="M383.3,153c-0.3,0.8-0.6,1.6-0.9,2.4c-3.4,10.4-13,16.4-23.8,14.9c-10.2-1.5-17.8-10.4-17.9-21.3
	c-0.1-22,0-44,0-66c0-3,0-6,0-9.3c-1.9,0.5-2.7,1.9-3.8,3c-57.1,57.2-114.2,114.3-171.2,171.6c-6.3,6.4-13.6,9.2-22.4,6.8
	c-14.7-4.1-20.3-21.8-10.8-33.7c1.2-1.6,2.7-2.9,4.1-4.4c56.6-56.8,113.3-113.5,169.9-170.2c1.1-1.1,2.6-1.8,3.9-2.8
	c-0.3-0.5-0.6-0.9-0.9-1.3c-1.3,0-2.6,0-3.9,0c-23.7,0-47.4,0-71.1,0c-9.8,0-17.8-6-20.6-15c-2.8-8.9,0.5-18.5,8.2-23.9
	c2.6-1.8,5.6-2.6,8.5-3.8c45.2,0,90.3,0,135.5,0c2,0.9,4.1,1.6,6.1,2.6c6,3.1,9,8.5,11.1,14.6L383.3,153L383.3,153z"/>
</svg>
