<?xml version="1.0" encoding="utf-8"?>
<!-- Generator: Adobe Illustrator 28.0.0, SVG Export Plug-In . SVG Version: 6.00 Build 0)  -->
<svg version="1.1" id="Layer_1" xmlns="http://www.w3.org/2000/svg" xmlns:xlink="http://www.w3.org/1999/xlink" x="0px" y="0px"
	 viewBox="0 0 383.3 384" style="enable-background:new 0 0 383.3 384;" xml:space="preserve">
<g>
	<path d="M340.6,302.1c0.1-22.5,0.1-45,0-67.5c0-10.6-7.7-19.5-17.8-20.9c-13.6-2-24.7,7.8-24.7,21.9c-0.1,27.4,0,54.8,0,82.1
		c0,15-8.5,23.6-23.3,23.6c-69.6,0-139.2,0-208.8,0c-14.6,0-23.2-8.7-23.2-23.3c0-69.8,0-139.5,0-209.2c0-14.7,8.5-23.3,23.2-23.3
		c27.6,0,55.1,0.1,82.7-0.1c12.5-0.1,21.9-9.5,21.8-21.4c0-12-9.5-21.2-22-21.2c-28.6-0.1-57.1-0.2-85.7,0
		C28.5,43.1,0.2,71.3,0.1,105.5c-0.2,71.9-0.1,143.8,0,215.6c0,26.3,17.4,50.2,42.1,59.1c4.8,1.7,9.9,2.4,14.8,3.8v0h226.8
		c0.7-0.2,1.4-0.6,2.1-0.7c26.6-3.8,47.8-23.6,53.5-49.8C341.5,323.1,340.6,312.6,340.6,302.1z"/>
	<path d="M361.3,0H234.9c-11.7,0-21.6,9.3-21.8,21c-0.1,6,2.3,11.5,6.2,15.5c3.9,3.9,9.2,6.2,15.1,6.2h77.2L135,219.2
		c-8.3,8.3-8.3,21.9,0,30.2c4.2,4.2,9.6,6.2,15.1,6.2c5.5,0,10.9-2.1,15.1-6.2L340.6,74v74.9c0,11.7,9.3,21.6,21,21.8
		c6,0.1,11.5-2.3,15.5-6.2c3.9-3.9,6.2-9.2,6.2-15.1V22C383.3,9.8,373.5,0,361.3,0z"/>
</g>
</svg>
