<?xml version="1.0" encoding="UTF-8"?>
<svg id="Layer_1" data-name="Layer 1" xmlns="http://www.w3.org/2000/svg" viewBox="0 0 24 24">
  <defs>
    <style>
      .cls-1 {
        fill: #fff;
        fill-rule: evenodd;
        stroke-width: 0px;
      }
    </style>
  </defs>
  <path class="cls-1" d="m12.02.2C5.36.2,0,5.61,0,12.3c0,5.36,3.44,9.89,8.21,11.48.59.12.81-.27.81-.59,0-.27-.02-1.25-.02-2.24-3.34.71-4.03-1.45-4.03-1.45-.54-1.4-1.33-1.77-1.33-1.77-1.08-.74.07-.74.07-.74,1.2.07,1.84,1.25,1.84,1.25,1.08,1.84,2.8,1.33,3.49,1.01.1-.79.42-1.33.76-1.62-2.66-.27-5.46-1.33-5.46-5.98,0-1.33.47-2.41,1.23-3.25-.12-.3-.54-1.55.12-3.2,0,0,1.01-.32,3.3,1.25.98-.27,1.99-.39,3-.39s2.04.15,3,.39c2.29-1.57,3.3-1.25,3.3-1.25.66,1.67.25,2.9.12,3.2.79.84,1.23,1.92,1.23,3.25,0,4.65-2.8,5.68-5.48,5.98.44.37.81,1.11.81,2.24,0,1.62-.02,2.93-.02,3.32,0,.32.22.71.81.59,4.8-1.6,8.24-6.12,8.24-11.48.02-6.69-5.36-12.1-11.98-12.1Z"/>
</svg>