<?xml version="1.0" encoding="UTF-8"?>
<svg id="Layer_1" data-name="Layer 1" xmlns="http://www.w3.org/2000/svg" viewBox="0 0 383.31 384">
  <defs>
    <style>
      .cls-1 {
        fill: #fff;
        stroke-width: 0px;
      }
    </style>
  </defs>
  <path class="cls-1" d="m273.28,384.33c-10.62,0-19.24-8.61-19.24-19.24v-50.01c1.21-11.63-2.57-23.24-10.39-31.93-7.2-7.81-6.71-19.98,1.1-27.18,2.94-2.71,6.66-4.44,10.63-4.94,46.93-5.58,90.21-20.58,90.21-101.95.01-15.19-4.47-30.05-12.89-42.7-7.77-11.64-10.6-25.89-7.89-39.63,1.73-8.96,1.73-18.16,0-27.12-14.4,4.87-27.97,11.94-40.2,20.97-4.68,3.33-10.61,4.39-16.16,2.89-34.71-9.81-71.47-9.81-106.18,0-5.55,1.5-11.47.44-16.16-2.89-12.31-9.13-26.02-16.21-40.59-20.97-1.83,8.95-1.83,18.17,0,27.12,2.52,13.9-.44,28.25-8.27,40.01-8.38,12.74-12.86,27.65-12.89,42.9,0,74.83,36.16,94.83,90.41,101.76,7.24.9,13.35,5.81,15.77,12.7,2.28,6.67.73,14.05-4.04,19.24-7.56,8.09-11.4,18.97-10.58,30.01v51.74c0,10.62-8.61,19.24-19.24,19.24s-19.24-8.61-19.24-19.24v-10.96c-38.39,4.42-76.44-10.68-101.37-40.2-6.31-6.99-13.88-12.74-22.31-16.93-10.3-2.66-16.51-13.16-13.85-23.47,2.66-10.3,13.16-16.51,23.47-13.85,14.8,5.39,28.02,14.38,38.47,26.16,19.24,19.24,38.47,36.16,75.02,29.24-.64-10.33.86-20.68,4.42-30.39-39.63-10-96.18-38.47-96.18-134.65-.05-22.78,6.64-45.07,19.24-64.05,2.34-3.5,3.23-7.78,2.5-11.93-3.89-20.76-1.68-42.21,6.35-61.75,2.21-5.27,6.65-9.29,12.12-10.96,6.54-1.92,30.01-5.77,74.44,23.08,35.97-8.66,73.48-8.66,109.45,0C313.68-4.42,337.14-.77,343.49,1.35c5.47,1.67,9.91,5.69,12.12,10.96,8.05,19.6,10.25,41.11,6.35,61.94-.8,3.79-.03,7.74,2.12,10.96,12.63,19.04,19.32,41.4,19.24,64.25,0,97.52-56.17,125.8-96.18,134.65,3.52,10.32,4.96,21.24,4.23,32.12v48.86c.02,10.19-7.91,18.62-18.08,19.24h-.01Z"/>
</svg>