<?xml version="1.0" encoding="utf-8"?>
<!-- Generator: Adobe Illustrator 28.0.0, SVG Export Plug-In . SVG Version: 6.00 Build 0)  -->
<svg version="1.1" id="Group_1448" xmlns="http://www.w3.org/2000/svg" xmlns:xlink="http://www.w3.org/1999/xlink" x="0px" y="0px"
	 viewBox="0 0 103.4 228.4" style="enable-background:new 0 0 103.4 228.4;" xml:space="preserve">
<style type="text/css">
	.st0{fill:#313131;}
</style>
<g id="Group_1445">
	<path id="Path_215" class="st0" d="M103.4,225.8c-0.1-0.2-0.2-0.3-0.3-0.5c-1.2-1.9-2.5-3.8-3.8-5.7c-5.3-7.2-12.5-13-20.7-16.7
		c-7.8-3.9-16.7-5.1-25.4-5c-6.4,0.1-12.8,0.9-19.2,0.2c-6-0.7-13.1-1.9-18.5-5.4c-6.7-4.3-10.9-11.6-11.2-19.6
		c-0.6-9.4,2.6-18.1,5.4-27.4c5-17.4,6.2-34.1,0.9-51.6c-2.7-9.6-6.5-19-8.1-28.9C0.6,55.2,3.3,42.1,10,34.3
		c4.9-5.9,11.1-8.9,18.2-11.1c15-4.6,31.4-1.4,47.2-5.4c6.6-1.5,12.8-4.1,18.6-7.6c3.4-2.2,6.5-4.8,9.5-7.5V0
		c-5.4,5.5-11.9,9.9-19,12.9c-12.2,5-24.2,5.3-37.2,5.7c-18.1,0.4-38.2,6-44.7,25c-4.9,12.7-1.9,26,2.1,38.4
		c4.9,14.3,8.9,28.1,7.1,43.2c-0.7,6.8-2,13.6-4,20.2c-5,15.4-10.8,34.2,3.3,46.7c5.6,5.1,13.2,7,20.6,8c7.6,1.2,15.4,0.1,23,0.1
		c10.8-0.3,21.5,2.8,30.4,8.9c7.3,4.6,12.7,11.3,17.3,19c0.2,0.4,0.6,0.6,1.1,0.5L103.4,225.8z"/>
</g>
</svg>
