<?xml version="1.0" encoding="utf-8"?>
<!-- Generator: Adobe Illustrator 28.0.0, SVG Export Plug-In . SVG Version: 6.00 Build 0)  -->
<svg version="1.1" id="Group_1448" xmlns="http://www.w3.org/2000/svg" xmlns:xlink="http://www.w3.org/1999/xlink" x="0px" y="0px"
	 viewBox="0 0 98.3 219.3" style="enable-background:new 0 0 98.3 219.3;" xml:space="preserve">
<path d="M98.3,216.8c-1.4-1.1-2.9-2.2-4.4-3.2c-5.8-3.5-12-6.1-18.6-7.6c-15.8-4-32.2-0.8-47.2-5.4c-7.1-2.2-13.3-5.2-18.2-11
	c-6.7-7.8-9.4-20.9-7.5-30.9c1.6-9.9,5.4-19.3,8.1-28.9c0-0.1,0-0.1,0.1-0.2c3.9-13,3.9-26.9,0-39.9c0-0.1,0-0.1-0.1-0.2
	c-2.7-9.6-6.5-19-8.1-28.9c-1.9-10,0.8-23.1,7.5-30.9c4.9-5.9,11.1-8.9,18.2-11.1c15-4.6,31.4-1.4,47.2-5.4
	c6.6-1.5,12.8-4.1,18.6-7.6c1.5-1,3-2.1,4.4-3.2V0c-4.2,3.4-8.9,6.2-13.9,8.3c-12.2,5-24.2,5.3-37.2,5.7C29.1,14.4,9,20,2.5,39
	c-4.9,12.7-1.9,26,2.1,38.4c1.6,4.7,3.1,9.4,4.4,14c3.2,11.9,3.2,24.5,0,36.4c-1.2,4.7-2.8,9.3-4.4,14c-4,12.4-7,25.7-2.1,38.4
	c6.5,19,26.6,24.6,44.7,25c13,0.4,25,0.7,37.2,5.7c5,2.1,9.7,5,13.9,8.3V216.8z"/>
</svg>
